<mxfile host="app.diagrams.net" modified="2023-10-11T03:00:15.319Z" agent="Mozilla/5.0 (Macintosh; Intel Mac OS X 10_15_7) AppleWebKit/537.36 (KHTML, like Gecko) Chrome/117.0.0.0 Safari/537.36" version="21.6.2" etag="emmVoYalJ5GNcHhExwYA" type="github">
  <diagram name="第 1 页" id="sFmEyX7m1pfAUnT8VScS">
    <mxGraphModel>
      <root>
        <mxCell id="0" />
        <mxCell id="1" parent="0" />
      </root>
    </mxGraphModel>
  </diagram>
</mxfile>
